<?xml version="1.0" standalone="no"?><!DOCTYPE svg PUBLIC "-//W3C//DTD SVG 1.1//EN" "http://www.w3.org/Graphics/SVG/1.1/DTD/svg11.dtd"><svg t="1527334305395" class="icon" style="" viewBox="0 0 1024 1024" version="1.1" xmlns="http://www.w3.org/2000/svg" p-id="2025" xmlns:xlink="http://www.w3.org/1999/xlink" width="16" height="16"><defs><style type="text/css"></style></defs><path d="M186.201524 612.102286c-56.315665 0-100.362405-66.286876-100.362405-150.998814s44.04674-150.998815 100.362405-150.998815S286.563929 376.391533 286.563929 461.103472s-44.04674 150.998815-100.362405 150.998814z m200.681457-200.638103c-56.185605 0-100.275699-66.113463-100.275699-150.478578s44.04674-150.435224 100.275699-150.435224 100.275699 66.113463 100.275698 150.478578-44.090093 150.435224-100.275698 150.435224z m251.014394 0c-56.315665 0-100.362405-66.113463-100.362405-150.478578s44.04674-150.435224 100.362405-150.435224 100.362405 66.113463 100.362405 150.478578-44.04674 150.435224-100.362405 150.435224z m200.768163 200.638103c-56.315665 0-100.362405-66.286876-100.362405-150.998814s44.04674-150.998815 100.362405-150.998815S939.027942 376.34818 939.027942 461.060119s-44.04674 151.042168-100.362404 151.042167zM688.100254 913.016088c-43.569856 0-73.006605-14.740051-98.975106-27.745978-24.104318-12.052159-44.870449-22.413548-76.691617-22.413548-31.691109 0-52.45724 10.361389-76.518205 22.413548-26.055207 13.005927-55.578662 27.745978-99.105165 27.745978-27.91939 0-54.14801-15.216935-72.139543-41.66232-31.474344-46.43116-31.951228-116.923285-1.387299-193.354784 55.058425-137.516003 145.839797-216.375275 249.150212-216.375275s194.13514 78.815919 249.150212 216.375275c30.563929 76.431499 30.043692 146.880271-1.387299 193.354784-17.904826 26.488738-44.220152 41.66232-72.139543 41.66232h0.043353z" fill="#999999" p-id="2026"></path><path d="M429.152244 681.077053c16.951058 1.474005 26.098561 17.211177 27.442506 47.254869-1.387299 29.306689-10.534801 44.697036-27.442506 46.171042-19.682303 0-29.17663-15.390347-28.482981-46.171042-0.650296-31.474344 8.84403-47.254869 28.482981-47.254869z m-8.107028-27.485859c-37.977307 2.211008-58.309907 27.095682-60.997799 74.740728 2.687892 46.908044 21.676545 71.099069 56.965961 72.529721 18.988654 0 32.211346-7.326672 39.668078-21.980017 0 2.211008 0.346825 5.505843 0.997121 9.884504v9.884505h39.668078c-0.693649-8.800677-1.040474-18.338357-0.997121-28.569687v-174.756308h-39.668078v78.035563c-8.887384-12.442337-20.722777-19.032007-35.63624-19.769009z m243.427604 146.143268v-13.179339c-0.737003-5.115665-1.083827-9.147502-1.083828-12.095513v-116.489754h-42.876206v85.70906c-0.737003 19.769009-9.147502 30.390517-25.274852 31.864522-16.12735 0-24.537849-10.621507-25.274852-31.864522v-85.70906h-41.749026v92.342083c0 8.800677 0.737003 16.12735 2.211008 21.980017 5.852667 17.601355 21.589839 27.485859 47.254868 29.653514 19.032007 0 33.338527-6.58967 42.876207-19.769009l2.211007 17.601354 41.705674-0.043353z" fill="#FFFFFF" p-id="2027"></path></svg>